<?xml version="1.0" encoding="UTF-8"?><svg id="svg3476" xmlns="http://www.w3.org/2000/svg" viewBox="0 0 362.73 512"><polygon id="polygon2989" points="362.73 100.62 329.69 470.82 181.14 512 33.01 470.88 0 100.62 362.73 100.62" style="fill:#264de4; stroke-width:0px;"/><polygon id="polygon2991" points="181.37 130.89 181.37 480.52 301.4 447.25 329.64 130.89 181.37 130.89" style="fill:#2965f1; stroke-width:0px;"/><polygon id="polygon2993" points="75.68 268.22 79.75 313.63 181.37 313.63 181.37 268.22 75.68 268.22" style="fill:#ebebeb; stroke-width:0px;"/><polygon id="polygon2995" points="71.63 221.72 181.37 221.72 181.37 176.3 181.21 176.3 67.5 176.3 71.63 221.72" style="fill:#ebebeb; stroke-width:0px;"/><polygon id="polygon2997" points="181.16 433.46 181.37 433.4 181.37 386.15 181.17 386.21 130.59 372.55 127.36 336.33 102.79 336.33 81.78 336.33 88.14 407.63 181.16 433.46" style="fill:#ebebeb; stroke-width:0px;"/><path id="path2999" d="m85.37,0h55v23h-32v23h32v23h-55V0Z" style="stroke-width:0px;"/><path id="path3001" d="m151.37,0h55v20h-32v4h32v46h-55v-21h32v-4h-32V0Z" style="stroke-width:0px;"/><path id="path3003" d="m217.37,0h55v20h-32v4h32v46h-55v-21h32v-4h-32V0Z" style="stroke-width:0px;"/><polygon id="polygon3005" points="294.96 176.3 181.21 176.3 181.21 221.72 245.2 221.72 241.07 268.22 181.21 268.22 181.21 313.63 237.13 313.63 231.86 372.52 181.21 386.19 181.21 433.43 274.3 407.63 274.99 399.96 285.66 280.41 286.77 268.22 294.96 176.3" style="fill:#fff; stroke-width:0px;"/></svg>