<?xml version="1.0" encoding="UTF-8"?><svg id="Layer_1" xmlns="http://www.w3.org/2000/svg" xmlns:xlink="http://www.w3.org/1999/xlink" viewBox="0 0 47 65"><defs><mask id="mask" x="0" y="0" width="47" height="65" maskUnits="userSpaceOnUse"><g id="mask-2"><path id="path-1" d="m29.38,0H4.41C1.98,0,0,1.99,0,4.43v56.14c0,2.44,1.98,4.43,4.41,4.43h38.19c2.42,0,4.41-1.99,4.41-4.43V17.73L29.38,0Z" style="fill:#fff; fill-rule:evenodd; stroke-width:0px;"/></g></mask><mask id="mask-1" x="0" y="0" width="47" height="65" maskUnits="userSpaceOnUse"><g id="mask-4"><path id="path-3" d="m29.38,0H4.41C1.98,0,0,1.99,0,4.43v56.14c0,2.44,1.98,4.43,4.41,4.43h38.19c2.42,0,4.41-1.99,4.41-4.43V17.73L29.38,0Z" style="fill:#fff; fill-rule:evenodd; stroke-width:0px;"/></g></mask><linearGradient id="linear-gradient" x1="-878.2" y1="542.05" x2="-878.2" y2="541.14" gradientTransform="translate(14385.32 8922.26) scale(16.34 -16.43)" gradientUnits="userSpaceOnUse"><stop offset="0" stop-color="#1a237e" stop-opacity=".2"/><stop offset="1" stop-color="#1a237e" stop-opacity=".02"/></linearGradient><mask id="mask-2-2" x="0" y="0" width="47" height="65" maskUnits="userSpaceOnUse"><g id="mask-7"><path id="path-6" d="m29.38,0H4.41C1.98,0,0,1.99,0,4.43v56.14c0,2.44,1.98,4.43,4.41,4.43h38.19c2.42,0,4.41-1.99,4.41-4.43V17.73L29.38,0Z" style="fill:#fff; fill-rule:evenodd; stroke-width:0px;"/></g></mask><mask id="mask-3" x="0" y="0" width="47" height="65" maskUnits="userSpaceOnUse"><g id="mask-9"><path id="path-8" d="m29.38,0H4.41C1.98,0,0,1.99,0,4.43v56.14c0,2.44,1.98,4.43,4.41,4.43h38.19c2.42,0,4.41-1.99,4.41-4.43V17.73L29.38,0Z" style="fill:#fff; fill-rule:evenodd; stroke-width:0px;"/></g></mask><mask id="mask-4-2" x="0" y="0" width="47" height="65" maskUnits="userSpaceOnUse"><g id="mask-11"><path id="path-10" d="m29.38,0H4.41C1.98,0,0,1.99,0,4.43v56.14c0,2.44,1.98,4.43,4.41,4.43h38.19c2.42,0,4.41-1.99,4.41-4.43V17.73L29.38,0Z" style="fill:#fff; fill-rule:evenodd; stroke-width:0px;"/></g></mask><mask id="mask-5" x="0" y="0" width="47" height="65" maskUnits="userSpaceOnUse"><g id="mask-13"><path id="path-12" d="m29.38,0H4.41C1.98,0,0,1.99,0,4.43v56.14c0,2.44,1.98,4.43,4.41,4.43h38.19c2.42,0,4.41-1.99,4.41-4.43V17.73L29.38,0Z" style="fill:#fff; fill-rule:evenodd; stroke-width:0px;"/></g></mask><mask id="mask-6" x="0" y="0" width="47" height="65" maskUnits="userSpaceOnUse"><g id="mask-15"><path id="path-14" d="m29.38,0H4.41C1.98,0,0,1.99,0,4.43v56.14c0,2.44,1.98,4.43,4.41,4.43h38.19c2.42,0,4.41-1.99,4.41-4.43V17.73L29.38,0Z" style="fill:#fff; fill-rule:evenodd; stroke-width:0px;"/></g></mask><radialGradient id="radial-gradient" cx="-916.05" cy="562.19" fx="-916.05" fy="562.19" r="1.61" gradientTransform="translate(43056 26424.49) scale(47 -47)" gradientUnits="userSpaceOnUse"><stop offset="0" stop-color="#fff" stop-opacity=".1"/><stop offset="1" stop-color="#fff" stop-opacity="0"/></radialGradient></defs><g id="Page-1"><g id="Consumer-Apps-Docs-Large-VD-R8"><g id="Hero"><g id="Personal"><g id="Docs-icon"><g id="Group"><g id="Clipped"><g style="mask:url(#mask);"><path id="Path" d="m29.38,0H4.41C1.98,0,0,1.99,0,4.43v56.14c0,2.44,1.98,4.43,4.41,4.43h38.19c2.42,0,4.41-1.99,4.41-4.43V17.73l-10.28-7.39L29.38,0Z" style="fill:#4285f4; stroke-width:0px;"/></g></g><g id="Clipped-2"><g style="mask:url(#mask-1);"><polygon id="Path-2" points="30.66 16.43 47 32.86 47 17.73 30.66 16.43" style="fill:url(#linear-gradient); stroke-width:0px;"/></g></g><g id="Clipped-3"><g style="mask:url(#mask-2-2);"><path id="Shape" d="m11.75,47.27h23.5v-2.95H11.75v2.95Zm0,5.91h17.62v-2.95H11.75v2.95Zm0-20.68v2.95h23.5v-2.95H11.75Zm0,8.86h23.5v-2.95H11.75v2.95Z" style="fill:#f1f1f1; stroke-width:0px;"/></g></g><g id="Clipped-4"><g style="mask:url(#mask-3);"><g id="Group-2"><path id="Path-3" d="m29.38,0v13.3c0,2.45,1.97,4.43,4.41,4.43h13.22L29.38,0Z" style="fill:#a1c2fa; stroke-width:0px;"/></g></g></g><g id="Clipped-5"><g style="mask:url(#mask-4-2);"><path id="Path-4" d="m4.41,0C1.98,0,0,1.99,0,4.43v.37C0,2.36,1.98.37,4.41.37h24.97v-.37H4.41Z" style="fill:rgba(255,255,255,.2); stroke-width:0px;"/></g></g><g id="Clipped-6"><g style="mask:url(#mask-5);"><path id="Path-5" d="m42.59,64.63H4.41c-2.42,0-4.41-1.99-4.41-4.43v.37c0,2.44,1.98,4.43,4.41,4.43h38.19c2.42,0,4.41-1.99,4.41-4.43v-.37c0,2.44-1.98,4.43-4.41,4.43Z" style="fill:rgba(26,35,126,.2); stroke-width:0px;"/></g></g><g id="Clipped-7"><g style="mask:url(#mask-6);"><path id="Path-6" d="m33.78,17.73c-2.43,0-4.41-1.98-4.41-4.43v.37c0,2.45,1.97,4.43,4.41,4.43h13.22v-.37h-13.22Z" style="fill:rgba(26,35,126,.1); stroke-width:0px;"/></g></g></g><path id="Path-7" d="m29.38,0H4.41C1.98,0,0,1.99,0,4.43v56.14c0,2.44,1.98,4.43,4.41,4.43h38.19c2.42,0,4.41-1.99,4.41-4.43V17.73L29.38,0Z" style="fill:url(#radial-gradient); stroke-width:0px;"/></g></g></g></g></g></svg>