<?xml version="1.0" encoding="UTF-8"?><svg id="uuid-a80f03b2-e0ea-4f41-8a71-a756115c8989" xmlns="http://www.w3.org/2000/svg" viewBox="0 0 929.34 843.28"><circle cx="465.94" cy="385.17" r="385.17" style="fill:#2f3242; stroke-width:0px;"/><path d="m390.08,237.74c5.89,1.07,11.53-2.83,12.6-8.71,1.07-5.89-2.83-11.53-8.71-12.6l-3.89,21.31Zm-137.1,24.51l9.39,5.41h0l-9.39-5.41Zm1.95,104.48c2.97,5.19,9.59,6.99,14.78,4.02s6.99-9.59,4.02-14.78l-18.8,10.76Zm52.69,34.97c-4.02-4.43-10.87-4.76-15.3-.73-4.43,4.02-4.76,10.87-.73,15.3l16.04-14.57Zm96.63,90.01l-5.42,9.38,5.42-9.38Zm259.82,47.03c4.94-3.37,6.21-10.11,2.84-15.05-3.37-4.94-10.11-6.21-15.05-2.84l12.22,17.89ZM393.97,216.43c-33.52-6.12-64.74-6.41-90.68-.14-25.99,6.28-47.48,19.38-59.69,40.56l18.77,10.82c8.39-14.56,23.89-24.97,46-30.31,22.16-5.35,50.17-5.36,81.71.4l3.89-21.31Zm-150.37,40.41c-18.13,31.46-10.7,71.4,11.34,109.89l18.8-10.76c-20.5-35.81-23.8-66.74-11.37-88.31l-18.77-10.82Zm47.98,159.43c27.74,30.53,64.32,60,107.24,84.82l10.85-18.76c-41.18-23.81-75.95-51.91-102.05-80.63l-16.04,14.57Zm107.24,84.82c51.13,29.57,103.51,48.06,149.78,54.77,45.88,6.66,87.5,1.97,115.47-17.13l-12.22-17.89c-21.45,14.65-56.57,19.9-100.13,13.58-43.17-6.27-92.94-23.69-142.05-52.09l-10.85,18.76Zm316.03,9.92c0-20.91-16.93-37.89-37.84-37.89v21.67c8.92,0,16.18,7.25,16.18,16.22h21.67Zm-37.84-37.89c-20.92,0-37.84,16.98-37.84,37.89h21.67c0-8.97,7.26-16.22,16.18-16.22v-21.67Zm-37.84,37.89c0,20.91,16.93,37.89,37.84,37.89v-21.67c-8.92,0-16.18-7.25-16.18-16.22h-21.67Zm37.84,37.89c20.91,0,37.84-16.98,37.84-37.89h-21.67c0,8.97-7.26,16.22-16.18,16.22v21.67Z" style="fill:#a2ecfb; stroke-width:0px;"/><path d="m631.37,393.49c-3.86,4.57-3.29,11.4,1.28,15.27,4.57,3.86,11.4,3.29,15.27-1.28l-16.55-13.99Zm47.12-130.88l-9.39,5.41,9.39-5.41Zm-89.13-50.52c-5.98-.08-10.9,4.71-10.97,10.69-.08,5.98,4.71,10.9,10.69,10.97l.28-21.66Zm-57.57,27.92c5.85-1.25,9.57-7.01,8.32-12.86-1.26-5.85-7.02-9.57-12.86-8.32l4.55,21.18Zm-127.33,39.08l5.42,9.38-5.42-9.38Zm-169.93,207.83c.87,5.92,6.37,10.02,12.29,9.15,5.92-.87,10.02-6.37,9.15-12.29l-21.44,3.14Zm413.39-79.44c21.95-25.97,37.72-52.83,45.23-78.41,7.52-25.62,6.91-50.74-5.27-71.87l-18.77,10.82c8.38,14.53,9.65,33.15,3.25,54.95-6.41,21.85-20.34,46.09-40.99,70.52l16.55,13.99Zm39.96-150.27c-17.84-30.95-55.18-44.54-98.51-45.11l-.28,21.66c40.16.52,67.8,13.06,80.03,34.27l18.77-10.82Zm-160.63-38.37c-40.62,8.72-84.84,25.8-128.21,50.88l10.85,18.76c41.6-24.06,83.72-40.26,121.91-48.45l-4.55-21.18Zm-128.21,50.88c-52.64,30.44-95.79,67.89-124.78,105.79-28.72,37.54-44.74,77.15-39.72,111.41l21.44-3.14c-3.77-25.76,8.21-59.44,35.49-95.11,27.01-35.3,67.86-70.96,118.42-100.2l-10.85-18.76Z" style="fill:#a2ecfb; stroke-width:0px;"/><path d="m376.16,524.98c-2.01-5.63-8.21-8.57-13.85-6.55-5.63,2.01-8.57,8.21-6.55,13.85l20.4-7.29Zm177.43,55.35c3.08-5.13,1.42-11.78-3.71-14.86-5.13-3.08-11.78-1.42-14.86,3.71l18.58,11.15Zm6.06-67.68c-1.78,5.71,1.4,11.79,7.11,13.57,5.71,1.78,11.79-1.4,13.57-7.11l-20.68-6.46Zm28.97-127.06h-10.83,10.83Zm-91.64-249.99c-5.47-2.43-11.87.03-14.3,5.5-2.43,5.47.03,11.87,5.5,14.3l8.8-19.8Zm-141.21,396.68c11.48,32.09,26.82,59.27,45.2,78.62,18.41,19.37,40.47,31.45,64.88,31.45v-21.67c-16.76,0-33.5-8.22-49.17-24.71-15.7-16.53-29.71-40.79-40.51-70.99l-20.4,7.29Zm110.08,110.07c35.42,0,65.65-25.21,87.75-62.02l-18.58-11.15c-20.45,34.08-44.92,51.51-69.17,51.51v21.67Zm114.49-123.24c12.16-38.92,19.12-84.68,19.12-133.52h-21.67c0,46.86-6.69,90.42-18.13,127.06l20.68,6.46Zm19.12-133.52c0-59.9-10.47-115.22-28.21-158.99-17.58-43.37-43.05-77.11-74.27-91l-8.8,19.8c23.73,10.55,46.29,38.14,62.99,79.34,16.54,40.81,26.62,93.31,26.62,150.85h21.67Z" style="fill:#a2ecfb; stroke-width:0px;"/><path d="m704.02,511c0-14.94-12.09-27.05-27.01-27.05s-27.01,12.11-27.01,27.05,12.09,27.05,27.01,27.05,27.01-12.11,27.01-27.05h0Z" style="fill:none; stroke:#a2ecfb; stroke-linecap:round; stroke-width:3.6px;"/><path d="m254.18,538.06c14.92,0,27.01-12.11,27.01-27.05s-12.09-27.05-27.01-27.05-27.01,12.11-27.01,27.05,12.09,27.05,27.01,27.05h0Z" style="fill:none; stroke:#a2ecfb; stroke-linecap:round; stroke-width:3.6px;"/><ellipse cx="465.84" cy="139.65" rx="27.01" ry="27.05" style="fill:none; stroke:#a2ecfb; stroke-linecap:round; stroke-width:3.6px;"/><path d="m471.06,409.76c-13.34,2.89-26.48-5.6-29.36-18.96-2.88-13.36,5.59-26.52,18.93-29.41,13.34-2.89,26.47,5.6,29.36,18.96,2.88,13.36-5.59,26.52-18.93,29.41Z" style="fill:#a2ecfb; fill-rule:evenodd; stroke-width:0px;"/></svg>