<?xml version="1.0" encoding="UTF-8"?><svg id="Livello_1" xmlns="http://www.w3.org/2000/svg" xmlns:xlink="http://www.w3.org/1999/xlink" viewBox="0 0 2289.75 2130"><defs><linearGradient id="linear-gradient" x1="203.51" y1="-649.02" x2="967.99" y2="675.02" gradientTransform="translate(0 1052)" gradientUnits="userSpaceOnUse"><stop offset="0" stop-color="#18884f"/><stop offset=".5" stop-color="#117e43"/><stop offset="1" stop-color="#0b6631"/></linearGradient></defs><path d="m1437.75,1011.75l-905.25-159.75v1180.39c0,53.91,43.7,97.61,97.61,97.61h1562.04c53.91,0,97.61-43.7,97.61-97.61h0v-434.89l-852-585.75Z" style="fill:#185c37; stroke-width:0px;"/><path d="m1437.75,0h-807.64c-53.91,0-97.61,43.7-97.61,97.61h0v434.89l905.25,532.5,479.25,159.75,372.75-159.75v-532.5L1437.75,0Z" style="fill:#21a366; stroke-width:0px;"/><path d="m532.5,532.5h905.25v532.5h-905.25v-532.5Z" style="fill:#107c41; stroke-width:0px;"/><path d="m1180.39,426h-647.89v1331.25h647.89c53.83-.18,97.43-43.77,97.61-97.61V523.61c-.18-53.83-43.77-97.43-97.61-97.61Z" style="isolation:isolate; opacity:.1; stroke-width:0px;"/><path d="m1127.14,479.25h-594.64v1331.25h594.64c53.83-.18,97.43-43.77,97.61-97.61V576.86c-.18-53.83-43.77-97.43-97.61-97.61Z" style="isolation:isolate; opacity:.2; stroke-width:0px;"/><path d="m1127.14,479.25h-594.64v1224.75h594.64c53.83-.18,97.43-43.77,97.61-97.61V576.86c-.18-53.83-43.77-97.43-97.61-97.61Z" style="isolation:isolate; opacity:.2; stroke-width:0px;"/><path d="m1073.89,479.25h-541.39v1224.75h541.39c53.83-.18,97.43-43.77,97.61-97.61V576.86c-.18-53.83-43.77-97.43-97.61-97.61Z" style="isolation:isolate; opacity:.2; stroke-width:0px;"/><path d="m97.61,479.25h976.28c53.91,0,97.61,43.7,97.61,97.61v976.28c0,53.91-43.7,97.61-97.61,97.61H97.61c-53.91,0-97.61-43.7-97.61-97.61v-976.29c0-53.91,43.7-97.61,97.61-97.61Z" style="fill:url(#linear-gradient); stroke-width:0px;"/><path d="m302.3,1382.26l205.33-318.17-188.13-316.41h151.34l102.67,202.35c9.48,19.22,15.97,33.49,19.49,42.92h1.33c6.74-15.34,13.84-30.23,21.3-44.68l109.75-200.48h138.93l-192.92,314.55,197.83,319.92h-147.82l-118.59-222.1c-5.59-9.45-10.33-19.38-14.16-29.66h-1.76c-3.47,10.07-8.08,19.72-13.74,28.76l-122.1,223.01h-148.73Z" style="fill:#fff; stroke-width:0px;"/><path d="m2192.14,0h-754.39v532.5h852V97.61c0-53.91-43.7-97.61-97.61-97.61h0Z" style="fill:#33c481; stroke-width:0px;"/><path d="m1437.75,1065h852v532.5h-852v-532.5Z" style="fill:#107c41; stroke-width:0px;"/></svg>