<?xml version="1.0" encoding="UTF-8"?><svg id="Layer_1" xmlns="http://www.w3.org/2000/svg" viewBox="0 0 512 114.25"><path d="m158.8,114.25V2.23h6.08v17.62c.72-.78,1.38-1.61,1.98-2.48C171.93,6.84,182.64.2,194.32.33c13.85-.41,25.11,4.72,31.73,17.04,8.54,15.54,9.03,34.25,1.32,50.22-6.16,13.81-21.39,20.68-37.69,18.16-10.31-.88-19.46-6.92-24.32-16.05v44.55h-6.56Zm6.08-72.39l1.36,13.15c2.4,14.97,11.25,23.82,25.15,25.48,13.46,2.21,26.6-5.39,31.4-18.16,5.41-12.88,5.01-27.46-1.07-40.04-5.1-11.4-17.13-18.05-29.5-16.3-11.58.84-21.36,8.93-24.36,20.14-1.29,5.18-2.29,10.43-2.98,15.72h0Zm191.99,15.22c-1.91,16.31-15.6,28.69-32.02,28.96-25.48,1.28-37.44-15.64-39.34-35.16-1.32-10.6.4-21.36,4.96-31.03,6.52-13.6,21.09-21.42,36.03-19.32,14.19,1.21,26.02,11.35,29.37,25.19,1.29,6.15,2.25,12.36,2.85,18.62h-66.92c-1.24,17.7,8.27,31.94,21.76,35.37,16.79,4.13,31.15-3.14,36.36-19.11,1.16-4.1,3.27-4.68,6.99-3.51h-.04Zm-65.11-18.41h59.86c-.37-18.86-12.12-32.57-28.05-32.72-17.99-.29-31.03,12.87-31.81,32.72Zm77.48,18.82h5.87c.44,8.81,5.77,16.64,13.81,20.27,10.03,4.52,21.58,4.21,31.36-.83,5.39-2.43,8.69-7.96,8.27-13.86.31-5.71-3.2-10.92-8.6-12.78-6.46-2.4-13.32-3.72-19.9-5.83-6.84-1.95-13.54-4.4-20.02-7.32-10.6-5.17-11.25-25.32.74-31.69,12.48-7.04,27.68-7.28,40.37-.62,7.75,4.28,12.03,12.92,10.76,21.68h-5.03c0-.24-.46-.46-.46-.7-.62-16.04-14.11-21.06-28.58-19.65-4.37.49-8.52,1.81-12.41,3.76-4.79,2.19-7.68,7.16-7.19,12.41.01,5.25,3.32,9.92,8.27,11.67,6.32,2.32,13.03,3.81,19.56,5.62l15.8,4.13c7.35,2.41,12.45,9.11,12.82,16.84,1.26,8.48-3.06,16.82-10.71,20.68-13.81,7.82-36.57,5.75-46.7-4.13-5.19-5.22-8.08-12.3-8.02-19.65h-.01Zm139.89-30.98h-5.5c0-.74-.29-1.46-.37-2.03-.18-8.5-6.29-15.71-14.65-17.29-7.65-2.19-15.8-1.8-23.21,1.12-6.01,1.72-10.17,7.19-10.22,13.45-.22,6.16,3.93,11.62,9.93,13.07l25.15,6.46c2.72.65,5.4,1.47,8.02,2.44,8.02,2.92,13.46,10.36,13.71,18.87.25,8.53-4.77,16.33-12.64,19.64-11.8,5.36-25.32,5.5-37.23.37-9.92-4.28-16.13-14.28-15.55-25.07h5.38c2.02,9.75,8.72,17.86,17.9,21.7,9.18,3.84,19.67,2.9,28.02-2.51,5.12-2.66,8.22-8.05,7.94-13.81.26-5.71-3.31-10.89-8.73-12.7-6.46-2.4-13.32-3.68-19.9-5.83-6.88-1.92-13.61-4.34-20.14-7.24-10.34-5.09-11.17-25.07.62-31.44,12.65-7.35,28.23-7.52,41.04-.46,7.36,4.39,11.43,12.72,10.38,21.22l.06.03Zm-360.33,57.5c-4.48,1.69-9.52-.22-11.75-4.47l-21.39-29.58-3.1-4.13-24.82,33.75c-2.09,4.06-6.87,5.94-11.17,4.38l31.97-42.9L78.8,2.32c4.41-1.59,9.33.14,11.79,4.13l22.17,29.94,22.3-29.83c2.11-3.99,6.88-5.77,11.09-4.14l-11.54,15.32-15.64,20.35c-1.7,1.52-1.85,4.13-.33,5.83.1.12.21.23.33.33l29.78,39.75h.06ZM284.56,1.91v5.83c-16.53-1.08-30.81,11.44-31.89,27.96-.07,1-.08,2.01-.05,3.02,0,13.62,0,27.25,0,40.87v4.63h-5.92V2.27h5.83v16.79c7.16-12.25,18.2-16.79,32.06-17.12l-.04-.03ZM0,40.55l2.61-12.87C9.77,2.24,38.94-8.35,59,7.41c11.75,9.23,14.68,22.3,14.11,37.02H6.92c-1.07,26.31,17.91,42.19,42.19,34.08,8-2.92,14.02-9.57,16.01-17.83,1.28-4.13,3.4-4.84,7.28-3.65-1.31,10.2-7.23,19.24-16.05,24.53-14.76,8.07-33.04,5.74-45.3-5.79-5.91-6.64-9.48-15.04-10.17-23.92,0-1.46-.49-2.82-.83-4.13-.03-2.45-.05-4.85-.05-7.19h0Zm6.99-1.78h59.86c-.37-19.07-12.41-32.6-28.46-32.72-17.87-.24-30.65,12.99-31.44,32.64l.04.08Z" style="stroke-width:0px;"/></svg>