<?xml version="1.0" encoding="UTF-8"?><svg id="a" xmlns="http://www.w3.org/2000/svg" viewBox="0 0 1666.67 2500"><path id="b" d="m416.67,2500c230,0,416.67-186.67,416.67-416.67v-416.67h-416.67C186.67,1666.67,0,1853.33,0,2083.33s186.67,416.67,416.67,416.67Z" style="fill:#0acf83; stroke-width:0px;"/><path id="c" d="m0,1250c0-230,186.67-416.67,416.67-416.67h416.67v833.33h-416.67C186.67,1666.67,0,1480,0,1250Z" style="fill:#a259ff; stroke-width:0px;"/><path id="d" d="m0,416.67C0,186.67,186.67,0,416.67,0h416.67v833.33h-416.67C186.67,833.33,0,646.67,0,416.67Z" style="fill:#f24e1e; stroke-width:0px;"/><path id="e" d="m833.33,0h416.67c230,0,416.67,186.67,416.67,416.67s-186.67,416.67-416.67,416.67h-416.67V0Z" style="fill:#ff7262; stroke-width:0px;"/><path id="f" d="m1666.67,1250c0,230-186.67,416.67-416.67,416.67s-416.67-186.67-416.67-416.67,186.67-416.67,416.67-416.67,416.67,186.67,416.67,416.67Z" style="fill:#1abcfe; stroke-width:0px;"/></svg>