<?xml version="1.0" encoding="UTF-8"?><svg id="Layer_1" xmlns="http://www.w3.org/2000/svg" viewBox="0 0 512.01 512"><path d="m502.36,233.2L278.81,9.67c-12.87-12.88-33.75-12.89-46.63-.01,0,0,0,0-.01.01l-46.4,46.43,58.87,58.87c14.12-4.8,29.74-1.16,40.29,9.38,10.61,10.62,14.22,26.37,9.3,40.55l56.76,56.75c14.19-4.93,29.94-1.31,40.55,9.32,15.32,15.32,15.32,40.16,0,55.48h0c-15.34,15.33-40.19,15.33-55.53,0-11.19-11.21-14.55-28.04-8.51-42.68l-52.93-52.92v139.28c19.42,9.6,27.39,33.12,17.8,52.54-1.9,3.84-4.41,7.34-7.43,10.36-15.32,15.32-40.16,15.32-55.48,0h0c-15.32-15.32-15.33-40.16-.01-55.48,0,0,0,0,.01-.01,3.67-3.68,8.03-6.59,12.84-8.58v-140.57c-20.06-8.26-29.62-31.22-21.36-51.28.02-.06.05-.12.07-.18l-58.05-58.06L9.65,232.15c-12.86,12.89-12.86,33.76,0,46.64l223.56,223.56c12.89,12.86,33.75,12.86,46.64,0l222.51-222.51c12.86-12.89,12.86-33.76,0-46.64" style="fill:#f03c2e; stroke-width:0px;"/></svg>