<?xml version="1.0" encoding="UTF-8"?><svg id="Layer_1" xmlns="http://www.w3.org/2000/svg" viewBox="0 0 928 875.13"><path d="m871.24,596.28s-1.35-8.3-2.14-8.23l-150.61,14.53c-11.98,1.16-21.29,10.71-22.13,22.72l-4.14,59.3-116.52,8.31-7.93-53.75c-1.76-11.96-12.2-20.97-24.29-20.97h-158.96c-12.08,0-22.52,9.01-24.28,20.97l-7.93,53.75-116.52-8.31-4.14-59.3c-.84-12.01-10.15-21.57-22.13-22.73l-150.69-14.53c-.78-.07-1.35,8.23-2.13,8.23l-.2,32.59,127.62,20.58,4.18,59.83c.85,12.11,10.62,21.91,22.74,22.78l160.47,11.45c.61.04,1.21.07,1.81.07,12.06,0,22.48-9.02,24.25-20.97l8.15-55.3h116.57l8.15,55.3c1.76,11.95,12.2,20.97,24.27,20.97.59,0,1.18-.02,1.76-.06l160.49-11.45c12.12-.87,21.9-10.66,22.74-22.78l4.18-59.83,127.56-20.67-.21-32.51Z" style="fill:#fff; stroke-width:0px;"/><path d="m56.7,350.51v245.76c.45,0,.9.02,1.34.06l150.67,14.53c7.89.76,14.08,7.11,14.63,15.02l4.65,66.51,131.43,9.38,9.05-61.39c1.17-7.96,8-13.86,16.05-13.86h158.96c8.05,0,14.87,5.9,16.05,13.86l9.05,61.39,131.43-9.38,4.64-66.51c.55-7.91,6.74-14.26,14.63-15.02l150.61-14.53c.45-.04.89-.06,1.34-.06v-19.61l.06-.02v-226.13c21.22-26.71,41.31-56.17,56.7-80.96-23.52-40.04-52.34-75.83-83.15-108.99-28.57,14.38-56.32,30.67-82.54,48.01-13.12-13.04-27.89-23.7-42.4-34.85-14.26-11.45-30.32-19.85-45.56-29.63,4.54-33.79,6.78-67.05,7.68-101.77-39.32-19.79-81.25-32.91-123.66-42.33-16.93,28.46-32.42,59.28-45.91,89.41-15.99-2.67-32.06-3.66-48.15-3.85v-.02c-.11,0-.22.02-.31.02s-.2-.02-.3-.02v.02c-16.12.19-32.17,1.18-48.17,3.85-13.48-30.13-28.96-60.95-45.91-89.41-42.39,9.42-84.33,22.54-123.64,42.33.9,34.72,3.14,67.98,7.69,101.77-15.27,9.78-31.32,18.18-45.58,29.63-14.49,11.15-29.29,21.81-42.41,34.85-26.21-17.34-53.96-33.63-82.54-48.01C52.34,193.72,23.53,229.51,0,269.55c18.49,29.03,38.33,58.21,56.7,80.96h0Z" style="fill:#478cbf; stroke-width:0px;"/><path d="m736.07,641.85l-4.67,66.86c-.56,8.06-6.97,14.47-15.03,15.05l-160.49,11.45c-.39.03-.78.04-1.17.04-7.98,0-14.86-5.85-16.03-13.86l-9.2-62.41h-130.95l-9.2,62.41c-1.24,8.4-8.75,14.44-17.2,13.82l-160.49-11.45c-8.06-.58-14.47-6.99-15.03-15.05l-4.67-66.86-135.48-13.06c.06,14.56.25,30.51.25,33.69,0,143.09,181.51,211.86,407.02,212.65h.55c225.51-.79,406.96-69.57,406.96-212.65,0-3.23.2-19.12.26-33.69l-135.43,13.06Z" style="fill:#478cbf; stroke-width:0px;"/><path d="m341.21,450.28c0,50.17-40.65,90.81-90.8,90.81s-90.79-40.64-90.79-90.81,40.66-90.75,90.79-90.75,90.8,40.62,90.8,90.75" style="fill:#fff; stroke-width:0px;"/><path d="m319.37,455.66c0,33.28-26.97,60.25-60.27,60.25s-60.27-26.97-60.27-60.25,26.99-60.27,60.27-60.27,60.27,26.99,60.27,60.27" style="fill:#414042; stroke-width:0px;"/><path d="m463.99,549.35c-16.14,0-29.23-11.9-29.23-26.56v-83.59c0-14.65,13.08-26.56,29.23-26.56s29.25,11.91,29.25,26.56v83.59c0,14.66-13.11,26.56-29.25,26.56" style="fill:#fff; stroke-width:0px;"/><path d="m586.79,450.28c0,50.17,40.65,90.81,90.81,90.81s90.78-40.64,90.78-90.81-40.66-90.75-90.78-90.75-90.81,40.62-90.81,90.75" style="fill:#fff; stroke-width:0px;"/><path d="m608.64,455.66c0,33.28,26.96,60.25,60.24,60.25s60.27-26.97,60.27-60.25-26.96-60.27-60.27-60.27-60.24,26.99-60.24,60.27" style="fill:#414042; stroke-width:0px;"/></svg>