<?xml version="1.0" encoding="UTF-8"?><svg id="Layer_1" xmlns="http://www.w3.org/2000/svg" xmlns:xlink="http://www.w3.org/1999/xlink" viewBox="0 0 512 464.47"><defs><linearGradient id="linear-gradient" x1="-525.81" y1="132.57" x2="-527.12" y2="128.34" gradientTransform="translate(13416 -3093.59) scale(25)" gradientUnits="userSpaceOnUse"><stop offset="0" stop-color="#512"/><stop offset=".23" stop-color="#523"/><stop offset=".36" stop-color="#534"/><stop offset=".51" stop-color="#645"/><stop offset=".66" stop-color="#568"/><stop offset=".84" stop-color="#29d"/></linearGradient><linearGradient id="linear-gradient-2" x1="-516.37" y1="67.25" x2="-529.54" y2="70.48" gradientTransform="translate(13416 1968.05) scale(25 -25)" gradientUnits="userSpaceOnUse"><stop offset=".08" stop-color="#c33"/><stop offset=".19" stop-color="#de5239"/><stop offset=".31" stop-color="#f06e3e"/><stop offset=".42" stop-color="#fa8042"/><stop offset=".5" stop-color="#fe8643"/><stop offset=".58" stop-color="#fa7f42"/><stop offset=".7" stop-color="#ef6c3e"/><stop offset=".83" stop-color="#dc4c37"/><stop offset=".92" stop-color="#cf3633"/></linearGradient></defs><path d="m0,260.57l145.74-58.88c14.79-19.55,31.45-37.62,49.74-53.94,12.07-6.4,34.74-2.93,76.25-54.49C311.95,42.97,324.75,0,343.59,0c29.81,0,51.75,64.37,85.03,161.83,23.73,74.44,51.57,147.52,83.38,218.88-34.74-32.37-64.37-67.29-98.19-66.38-31.45.73-66.38,38.03-104.59,85.94-30.35,38.4-70.58,64.73-86.31,64.18,0,0-40.59-114.83-74.61-133.49-14.31-5.85-30.56-4.49-43.7,3.66L0,260.39v.18Z" style="fill:#49d; stroke-width:0px;"/><path d="m325.49,13.17c-12.25,16.46-27.06,46.63-53.76,80.09-41.51,51.57-64,48.09-76.25,54.49-18.37,16.24-35.04,34.31-49.74,53.94l60.34,44.07c51.2-69.85,78.63-145.55,100.02-194.56,5.36-13.21,11.84-25.94,19.38-38.03Z" style="fill:url(#linear-gradient); stroke-width:0px;"/><path d="m343.77,0C303.91,0,276.66,209.92,129.46,327.13c41.33-6.77,77.17,95.82,93.62,137.33,73.14-12.43,131.66-152.32,190.72-150.13,33.83,1.28,63.45,34.01,98.19,66.38C432.64,213.94,395.52,0,343.77,0Z" style="fill:url(#linear-gradient-2); stroke-width:0px;"/></svg>