<?xml version="1.0" encoding="UTF-8"?><svg id="Layer_1" xmlns="http://www.w3.org/2000/svg" viewBox="0 0 394 79.43"><path d="m261.92.03h68.63v12.67h-27.22v66.64h-13.61V12.7h-27.79V.03Z" style="stroke-width:0px;"/><path d="m149.05.03v12.67h-55.01v20.38h44.24v12.67h-44.24v20.93h55.01v12.67h-68.62V12.7h0V.03h68.63Z" style="stroke-width:0px;"/><path d="m183.32.07h-17.81l63.81,79.31h17.87l-31.91-39.63L247.13.13l-17.82.03-22.96,28.52L183.32.07Z" style="stroke-width:0px;"/><path d="m201.6,56.71l-8.92-11.09-27.22,33.81h17.87l18.28-22.72Z" style="stroke-width:0px;"/><path d="m80.91,79.34L17.02,0H0v79.31h13.61V16.95l50.19,62.39h17.1Z" style="fill-rule:evenodd; stroke-width:0px;"/><path d="m333.61,78.85c-1,0-1.85-.35-2.55-1.04-.71-.69-1.06-1.53-1.05-2.52,0-.96.34-1.79,1.05-2.48s1.56-1.04,2.55-1.04,1.8.35,2.51,1.04c.72.69,1.08,1.52,1.09,2.48-.01.65-.18,1.25-.51,1.79-.34.55-.77.97-1.32,1.28-.54.32-1.12.48-1.77.48Z" style="stroke-width:0px;"/><path d="m356.84,45.45h6.03v23.24c0,2.14-.47,3.96-1.37,5.5-.91,1.54-2.18,2.71-3.8,3.54-1.61.82-3.51,1.24-5.65,1.24-1.96,0-3.73-.35-5.29-1.05-1.57-.69-2.81-1.73-3.73-3.09-.92-1.36-1.38-3.06-1.38-5.1h6.04c0,.89.21,1.66.6,2.31s.92,1.14,1.6,1.48c.69.35,1.49.52,2.38.52.97,0,1.8-.2,2.47-.61.67-.4,1.19-1,1.55-1.8.35-.79.54-1.77.54-2.94v-23.24Z" style="stroke-width:0px;"/><path d="m387.69,54.53c-.15-1.41-.79-2.51-1.92-3.29-1.14-.79-2.6-1.18-4.4-1.18-1.26,0-2.35.19-3.25.56-.9.38-1.61.89-2.09,1.54-.48.65-.72,1.38-.74,2.21,0,.69.17,1.29.49,1.79.32.51.76.94,1.32,1.28.55.35,1.17.65,1.85.88.68.24,1.36.44,2.05.6l3.15.77c1.26.29,2.49.68,3.66,1.18,1.17.49,2.23,1.12,3.16,1.87.93.75,1.67,1.66,2.21,2.73.54,1.06.82,2.31.82,3.74,0,1.94-.5,3.64-1.5,5.11-1.01,1.46-2.45,2.61-4.35,3.44-1.89.82-4.18,1.24-6.87,1.24s-4.87-.4-6.78-1.2c-1.92-.79-3.41-1.95-4.49-3.48-1.08-1.53-1.66-3.39-1.74-5.58h5.98c.08,1.15.45,2.1,1.08,2.87.64.76,1.47,1.33,2.48,1.71,1.02.37,2.17.56,3.43.56s2.48-.2,3.49-.59c1-.39,1.78-.94,2.34-1.64.57-.7.86-1.53.87-2.47,0-.86-.27-1.58-.77-2.14-.51-.56-1.21-1.04-2.1-1.42-.9-.38-1.96-.73-3.15-1.03l-3.82-.96c-2.76-.7-4.94-1.76-6.54-3.19-1.6-1.43-2.4-3.32-2.4-5.69,0-1.94.54-3.65,1.61-5.12,1.07-1.46,2.54-2.6,4.39-3.41,1.86-.82,3.97-1.22,6.31-1.22s4.46.4,6.26,1.22c1.8.81,3.21,1.94,4.23,3.37,1.02,1.44,1.56,3.08,1.59,4.94h-5.85Z" style="stroke-width:0px;"/></svg>