<?xml version="1.0" encoding="UTF-8"?><svg id="Layer_1" xmlns="http://www.w3.org/2000/svg" xmlns:xlink="http://www.w3.org/1999/xlink" viewBox="0 0 512 315.14"><defs><clipPath id="clippath"><path d="m186.02,72.8l-48.76,28.28c-1.83,1.06-2.95,3.01-2.95,5.12v56.61c0,2.11,1.12,4.07,2.95,5.12l48.76,28.31c1.82,1.06,4.07,1.06,5.89,0l48.76-28.31c1.82-1.06,2.94-3.01,2.94-5.12v-56.61c0-2.11-1.12-4.07-2.95-5.12l-48.75-28.28c-.91-.53-1.93-.79-2.95-.79s-2.04.26-2.95.79" style="fill:none; stroke-width:0px;"/></clipPath><linearGradient id="linear-gradient" x1="-660.46" y1="270.32" x2="-659.06" y2="270.32" gradientTransform="translate(-61284.13 54723.64) rotate(116.11) scale(115.31 -115.31)" gradientUnits="userSpaceOnUse"><stop offset=".3" stop-color="#3e863d"/><stop offset=".5" stop-color="#55934f"/><stop offset=".8" stop-color="#5aad45"/></linearGradient><clipPath id="clippath-1"><path d="m135.52,166.41c.47.61,1.05,1.14,1.74,1.53l41.83,24.28,6.97,4.02c1.04.6,2.23.86,3.4.77.39-.03.78-.1,1.16-.21l51.43-94.64c-.39-.43-.85-.79-1.37-1.09l-31.93-18.53-16.88-9.76c-.48-.28-1-.48-1.53-.62l-54.81,94.24Z" style="fill:none; stroke-width:0px;"/></clipPath><linearGradient id="linear-gradient-2" x1="-664.18" y1="256.58" x2="-663.28" y2="256.58" gradientTransform="translate(121706.6 -33165.57) rotate(-36.46) scale(177.06 -177.06)" gradientUnits="userSpaceOnUse"><stop offset=".57" stop-color="#3e863d"/><stop offset=".72" stop-color="#619857"/><stop offset="1" stop-color="#76ac64"/></linearGradient><clipPath id="clippath-2"><path d="m188.38,72.04c-.82.08-1.62.34-2.36.76l-48.62,28.2,52.43,95.97c.73-.1,1.45-.35,2.09-.73l48.76-28.31c1.5-.88,2.53-2.36,2.85-4.04l-53.45-91.76c-.39-.08-.79-.12-1.19-.12-.16,0-.32,0-.49.02" style="fill:none; stroke-width:0px;"/></clipPath><linearGradient id="linear-gradient-3" x1="-659.01" y1="256.19" x2="-658.19" y2="256.19" gradientTransform="translate(85735.11 33410.34) scale(129.89 -129.89)" gradientUnits="userSpaceOnUse"><stop offset=".16" stop-color="#6bbf47"/><stop offset=".38" stop-color="#79b461"/><stop offset=".47" stop-color="#75ac64"/><stop offset=".7" stop-color="#659e5a"/><stop offset=".9" stop-color="#3e863d"/></linearGradient></defs><path d="m253.06,315.14c-1.69,0-3.37-.45-4.85-1.3l-15.44-9.18c-2.31-1.3-1.18-1.75-.42-2.02,3.07-1.08,3.7-1.33,6.98-3.2.34-.2.8-.13,1.15.08l11.86,7.07c.43.23,1.04.23,1.43,0l46.24-26.82c.43-.24.71-.74.71-1.26v-53.62c0-.54-.28-1.01-.72-1.28l-46.22-26.8c-.43-.26-1-.26-1.42,0l-46.21,26.8c-.45.26-.73.76-.73,1.27v53.62c0,.51.28,1,.72,1.24l12.66,7.35c6.87,3.45,11.08-.62,11.08-4.71v-52.92c0-.76.59-1.34,1.34-1.34h5.86c.73,0,1.33.58,1.33,1.34v52.95c0,9.21-5,14.5-13.69,14.5-2.67,0-4.78,0-10.66-2.91l-12.13-7.03c-3-1.74-4.85-5-4.85-8.48v-53.62c0-3.49,1.85-6.75,4.85-8.47l46.28-26.83c2.93-1.66,6.82-1.66,9.72,0l46.23,26.85c2.99,1.73,4.85,4.98,4.85,8.47v53.62c0,3.48-1.86,6.72-4.85,8.47l-46.23,26.83c-1.48.86-3.16,1.3-4.87,1.3" style="fill:#689f63; stroke-width:0px;"/><path d="m267.34,278.19c-20.23,0-24.47-9.33-24.47-17.16,0-.74.6-1.34,1.34-1.34h5.97c.66,0,1.22.48,1.32,1.14.9,6.12,3.59,9.2,15.82,9.2,9.75,0,13.89-2.21,13.89-7.41,0-2.99-1.18-5.21-16.32-6.7-12.66-1.26-20.49-4.06-20.49-14.24,0-9.38,7.87-14.96,21.05-14.96,14.8,0,22.14,5.16,23.07,16.26.03.38-.1.76-.36,1.04-.25.27-.61.43-.98.43h-6.01c-.62,0-1.17-.44-1.3-1.05-1.45-6.43-4.94-8.49-14.44-8.49-10.64,0-11.87,3.72-11.87,6.51,0,3.38,1.46,4.37,15.81,6.28,14.21,1.9,20.96,4.57,20.96,14.61s-8.4,15.92-23.06,15.92m56.32-56.87h1.55c1.27,0,1.52-.9,1.52-1.42,0-1.37-.94-1.37-1.46-1.37h-1.6v2.79Zm-1.89-4.4h3.44c1.18,0,3.5,0,3.5,2.65,0,1.85-1.18,2.23-1.89,2.47,1.38.09,1.47,1,1.66,2.28.09.8.24,2.19.52,2.65h-2.12c-.06-.47-.38-3.02-.38-3.16-.14-.57-.34-.85-1.04-.85h-1.75v4.02h-1.93v-10.06Zm-4.13,5c0,4.16,3.34,7.54,7.45,7.54s7.49-3.44,7.49-7.54-3.39-7.49-7.5-7.49-7.45,3.27-7.45,7.48m16.39.03c0,4.93-4.02,8.96-8.91,8.96s-8.91-3.98-8.91-8.96,4.14-8.96,8.91-8.96,8.9,3.9,8.9,8.96" style="fill:#689f63; stroke-width:0px;"/><path d="m109.88,105.32c0-2.14-1.12-4.11-2.96-5.17l-49.02-28.35c-.83-.49-1.75-.74-2.69-.78h-.51c-.94.03-1.87.29-2.71.78L2.97,100.15c-1.83,1.07-2.97,3.04-2.97,5.18l.11,76.35c0,1.06.54,2.05,1.47,2.57.9.56,2.04.56,2.94,0l29.14-16.77c1.84-1.1,2.96-3.05,2.96-5.16v-35.67c0-2.13,1.12-4.09,2.96-5.15l12.41-7.18c.92-.54,1.93-.8,2.96-.8s2.05.26,2.94.8l12.4,7.18c1.84,1.06,2.96,3.02,2.96,5.15v35.67c0,2.12,1.14,4.07,2.97,5.16l29.12,16.76c.91.55,2.05.55,2.96,0,.9-.52,1.47-1.51,1.47-2.57l.09-76.34Zm231.33,39.75c0,.53-.28,1.02-.74,1.29l-16.84,9.75c-.46.26-1.02.26-1.48,0l-16.84-9.75c-.46-.26-.74-.76-.74-1.29v-19.54c0-.53.28-1.02.73-1.29l16.83-9.77c.46-.27,1.03-.27,1.49,0l16.84,9.77c.46.27.74.76.74,1.29v19.54ZM345.76.38c-.92-.51-2.04-.5-2.94.03-.9.54-1.46,1.51-1.46,2.57v75.61c0,.74-.39,1.43-1.03,1.8-.64.37-1.43.37-2.07,0l-12.28-7.11c-1.83-1.06-4.08-1.06-5.92,0l-49.04,28.44c-1.83,1.06-2.96,3.02-2.96,5.14v56.9c0,2.13,1.13,4.08,2.96,5.15l49.04,28.46c1.83,1.06,4.09,1.06,5.92,0l49.04-28.47c1.83-1.07,2.96-3.02,2.96-5.15V21.94c0-2.16-1.17-4.14-3.04-5.2L345.76.38Zm163.3,124.65c1.82-1.06,2.94-3.03,2.94-5.14v-13.79c0-2.12-1.12-4.08-2.95-5.15l-48.73-28.43c-1.84-1.07-4.1-1.07-5.94,0l-49.03,28.44c-1.84,1.07-2.96,3.02-2.96,5.15v56.88c0,2.14,1.15,4.12,2.99,5.18l48.72,27.9c1.79,1.04,3.99,1.05,5.81.03l29.47-16.46c.93-.52,1.52-1.51,1.52-2.58s-.57-2.07-1.49-2.59l-49.33-28.45c-.93-.52-1.49-1.51-1.49-2.57v-17.84c0-1.07.56-2.05,1.48-2.58l15.35-8.9c.91-.54,2.04-.54,2.95,0l15.36,8.9c.91.52,1.48,1.51,1.48,2.57v14.03c0,1.06.57,2.05,1.48,2.58.91.52,2.05.52,2.96-.01l29.41-17.17Z" style="fill:#333; fill-rule:evenodd; stroke-width:0px;"/><path d="m456.64,122.36c.35-.21.78-.21,1.13,0l9.41,5.46c.35.2.57.58.57.99v10.92c0,.41-.22.78-.57.99l-9.41,5.46c-.35.21-.79.21-1.13,0l-9.4-5.46c-.36-.2-.58-.58-.58-.99v-10.92c0-.41.21-.78.57-.99l9.42-5.46Z" style="fill:#689f63; fill-rule:evenodd; stroke-width:0px;"/><g style="clip-path:url(#clippath);"><path d="m292.89,96.28L155.49,28.6l-70.45,144.43,137.4,67.69,70.45-144.44Z" style="fill:url(#linear-gradient); stroke-width:0px;"/></g><g style="clip-path:url(#clippath-1);"><path d="m76.12,116.3l97.02,131.96,128.31-95.27L204.42,21.04,76.12,116.3Z" style="fill:url(#linear-gradient-2); stroke-width:0px;"/></g><g style="clip-path:url(#clippath-2);"><path d="m137.4,72.02v124.96h106.11v-124.96h-106.11Z" style="fill:url(#linear-gradient-3); stroke-width:0px;"/></g></svg>