<?xml version="1.0" encoding="UTF-8"?><svg id="Layer_1" xmlns="http://www.w3.org/2000/svg" xmlns:xlink="http://www.w3.org/1999/xlink" viewBox="0 0 318.61 476.23"><defs><linearGradient id="linear-gradient" x1="-894.17" y1="278.11" x2="-894.3" y2="277.68" gradientTransform="translate(115693.21 -20732.95) rotate(-38) scale(116.23 -197.08)" gradientUnits="userSpaceOnUse"><stop offset="0" stop-color="#52ce63"/><stop offset="1" stop-color="#51a256"/></linearGradient><linearGradient id="linear-gradient-2" x1="-885.9" y1="285.19" x2="-886.02" y2="284.76" gradientTransform="translate(19474.54 115920.96) rotate(52) scale(116.31 -197.08)" gradientUnits="userSpaceOnUse"><stop offset="0" stop-color="#52ce63"/><stop offset="1" stop-color="#51a256"/></linearGradient><linearGradient id="linear-gradient-3" x1="-886.61" y1="280.97" x2="-886.61" y2="280.38" gradientTransform="translate(83430.56 71366.27) rotate(7) scale(103 -216)" gradientUnits="userSpaceOnUse"><stop offset="0" stop-color="#8ae99c"/><stop offset="1" stop-color="#52ce63"/></linearGradient><linearGradient id="linear-gradient-4" x1="-893.18" y1="281.55" x2="-893.25" y2="280.73" gradientTransform="translate(269008.56 93959.17) scale(301 -333)" gradientUnits="userSpaceOnUse"><stop offset="0" stop-color="#ffe56c"/><stop offset="1" stop-color="#ffc63a"/></linearGradient></defs><path d="m145.61,230.88c32.27-30.75,22.42-68.78-6.8-114.86-29.23-46.08-88.07-62.48-99.04-52.02s-13.41,85.23,15.82,131.31c29.23,46.08,57.75,66.32,90.03,35.57h0Z" style="fill:url(#linear-gradient); fill-rule:evenodd; stroke-width:0px;"/><path d="m173.51,235.14c23.88,37.64,55.79,23.88,95.3-13.76,39.51-37.64,55.89-109.75,47.77-122.55-8.12-12.8-69.83-12.16-109.34,25.48-39.51,37.64-57.61,73.19-33.73,110.83h0Z" style="fill:url(#linear-gradient-2); fill-rule:evenodd; stroke-width:0px;"/><path d="m160.46,214.43c39.64,4.87,55.23-31.76,62.5-90.96C230.23,64.27,200.26,1.69,186.78.04s-58.78,51.68-66.05,110.88c-7.27,59.2.08,98.64,39.73,103.51Z" style="fill:url(#linear-gradient-3); fill-rule:evenodd; stroke-width:0px;"/><path d="m150.47,476.23c83.12,0,150.53-24.15,150.53-133.65s-67.41-199.35-150.53-199.35S0,233.09,0,342.59s67.35,133.65,150.47,133.65Z" style="fill:url(#linear-gradient-4); fill-rule:evenodd; stroke-width:0px;"/><ellipse cx="226.5" cy="310.23" rx="21.5" ry="10" style="fill:#eaadcc; stroke-width:0px;"/><ellipse cx="68.5" cy="304.23" rx="10" ry="21.5" transform="translate(-241.81 335.15) rotate(-83)" style="fill:#eaadcc; stroke-width:0px;"/><path d="m164.25,306.69c-6.47,5.26-13.94,7.4-22.42,6.44-8.48-.97-14.76-4.49-18.85-10.56" style="fill:none; stroke:#000; stroke-linecap:round; stroke-linejoin:round; stroke-width:6px;"/><path d="m80.98,254.65c5.93-.21,11.39,2.01,15.41,5.76,4.02,3.75,6.62,9.04,6.82,14.97.21,5.93-2.01,11.39-5.76,15.41-3.75,4.02-9.04,6.62-14.97,6.82s-11.39-2.01-15.41-5.76c-4.02-3.75-6.62-9.04-6.82-14.97s2.01-11.39,5.76-15.41c3.75-4.02,9.04-6.62,14.97-6.82Z" style="fill-rule:evenodd; stroke-width:0px;"/><path d="m82.11,272.62c-.13-3.86-3.38-6.89-7.24-6.75-3.86.13-6.89,3.38-6.75,7.24s3.38,6.89,7.24,6.75c3.86-.14,6.89-3.38,6.75-7.24Z" style="fill:#fff; fill-rule:evenodd; stroke-width:0px;"/><path d="m211.25,260.11c5.93-.21,11.39,2.01,15.41,5.76,4.02,3.75,6.62,9.04,6.82,14.97s-2.01,11.39-5.76,15.41c-3.75,4.02-9.04,6.62-14.97,6.82-5.93.21-11.39-2.01-15.41-5.76-4.02-3.75-6.62-9.04-6.82-14.97-.21-5.93,2.01-11.39,5.76-15.41,3.75-4.02,9.04-6.62,14.97-6.82Z" style="fill-rule:evenodd; stroke-width:0px;"/><path d="m100.22,275.49c.36,10.21-7.63,18.78-17.84,19.13s-18.78-7.63-19.13-17.84,7.63-18.78,17.84-19.13,18.78,7.63,19.14,17.84Zm6-.21c-.47-13.52-11.82-24.1-25.34-23.63-13.52.47-24.1,11.82-23.63,25.34s11.82,24.1,25.34,23.63,24.1-11.82,23.63-25.34Z" style="fill:#fff; stroke:#fff; stroke-miterlimit:4; stroke-width:3px;"/><path d="m230.49,280.95c.36,10.21-7.63,18.78-17.84,19.13s-18.78-7.63-19.13-17.84c-.36-10.21,7.63-18.78,17.84-19.13,10.21-.36,18.78,7.63,19.13,17.84Zm6-.21c-.47-13.52-11.82-24.1-25.34-23.63-13.52.47-24.1,11.82-23.63,25.34.47,13.52,11.82,24.1,25.34,23.63s24.1-11.82,23.63-25.34Z" style="fill:#fff; stroke:#fff; stroke-miterlimit:4; stroke-width:3px;"/><path d="m212.38,278.08c-.13-3.86-3.38-6.89-7.24-6.75s-6.89,3.38-6.75,7.24,3.38,6.89,7.24,6.75,6.89-3.38,6.75-7.24Z" style="fill:#fff; fill-rule:evenodd; stroke-width:0px;"/><path d="m36.5,352.73l74,77" style="fill:none; stroke:#ecb732; stroke-linecap:round; stroke-width:11px;"/><path d="m100.5,361.73l-47,50" style="fill:none; stroke:#ecb732; stroke-linecap:round; stroke-width:11px;"/><path d="m263.5,352.73l-74,77" style="fill:none; stroke:#ecb732; stroke-linecap:round; stroke-width:11px;"/><path d="m199.5,361.73l47,50" style="fill:none; stroke:#ecb732; stroke-linecap:round; stroke-width:11px;"/><path d="m180.5,182.73l-49,49" style="fill:none; stroke:#ffc73b; stroke-linecap:round; stroke-width:11px;"/><path d="m170.5,231.73l-49-49" style="fill:none; stroke:#ffc73b; stroke-linecap:round; stroke-width:11px;"/></svg>