<?xml version="1.0" encoding="UTF-8"?><svg id="Livello_1" xmlns="http://www.w3.org/2000/svg" xmlns:xlink="http://www.w3.org/1999/xlink" viewBox="0 0 1919.95 1786"><defs><linearGradient id="linear-gradient" x1="170.65" y1="-370.1" x2="811.65" y2="740.1" gradientTransform="translate(0 708)" gradientUnits="userSpaceOnUse"><stop offset="0" stop-color="#ca4c28"/><stop offset=".5" stop-color="#c5401e"/><stop offset="1" stop-color="#b62f14"/></linearGradient></defs><path d="m1160.9,982.3L1026.95,0h-10C529.87,1.42,135.37,395.92,133.95,883v10l1026.95,89.3Z" style="fill:#ed6c47; stroke-width:0px;"/><path d="m1036.95,0h-10v893l446.5,178.6,446.5-178.6v-10C1918.53,395.92,1524.03,1.42,1036.95,0Z" style="fill:#ff8f6b; stroke-width:0px;"/><path d="m1919.95,893v9.82c-1.4,487.19-395.99,881.78-883.18,883.18h-19.65c-487.18-1.4-881.78-395.99-883.18-883.18v-9.82h1786Z" style="fill:#d35230; stroke-width:0px;"/><path d="m1071.6,438.91v952.83c-.22,33.11-20.29,62.85-50.9,75.46-9.75,4.12-20.22,6.25-30.81,6.25H344.7c-12.5-14.29-24.56-29.47-35.72-44.65-113.76-151.75-175.18-336.32-175.03-525.98v-19.65c-.26-171.06,49.73-338.43,143.77-481.33,9.82-15.18,20.09-30.36,31.26-44.65h680.91c44.99.34,81.37,36.73,81.71,81.71Z" style="isolation:isolate; opacity:.1; stroke-width:0px;"/><path d="m1026.95,483.56v952.83c0,10.58-2.13,21.06-6.25,30.81-12.61,30.61-42.35,50.68-75.46,50.9H385.33c-14.13-14.34-27.68-29.24-40.63-44.65-12.5-14.29-24.56-29.47-35.72-44.65-113.76-151.75-175.18-336.33-175.03-525.98v-19.65c-.26-171.06,49.73-338.43,143.77-481.33h667.52c44.99.34,81.37,36.72,81.71,81.71Z" style="isolation:isolate; opacity:.2; stroke-width:0px;"/><path d="m1026.95,483.56v863.53c-.34,44.98-36.72,81.37-81.71,81.71H308.98c-113.76-151.75-175.18-336.32-175.03-525.98v-19.65c-.26-171.06,49.73-338.43,143.77-481.33h667.52c44.99.34,81.37,36.72,81.71,81.71Z" style="isolation:isolate; opacity:.2; stroke-width:0px;"/><path d="m982.3,483.56v863.53c-.34,44.98-36.72,81.37-81.71,81.71H308.98c-113.76-151.75-175.18-336.32-175.03-525.98v-19.65c-.26-171.06,49.73-338.43,143.77-481.33h622.87c44.99.34,81.37,36.72,81.71,81.71Z" style="isolation:isolate; opacity:.2; stroke-width:0px;"/><path d="m81.84,401.85h818.61c45.2,0,81.84,36.64,81.84,81.84v818.61c0,45.2-36.64,81.84-81.84,81.84H81.84c-45.2,0-81.84-36.64-81.84-81.84V483.69c0-45.2,36.64-81.84,81.84-81.84Z" style="fill:url(#linear-gradient); stroke-width:0px;"/><path d="m500.08,620.14c53.29-3.6,106.12,11.88,149.04,43.67,35.8,31.96,54.93,78.6,51.88,126.49.59,33.29-8.29,66.07-25.58,94.52-17.51,27.96-42.74,50.26-72.65,64.21-34.19,15.9-71.56,23.75-109.26,22.95h-103.54v192.44h-106.04v-544.28h216.15Zm-110.2,268.7h91.26c28.93,2.12,57.64-6.44,80.68-24.07,19.06-18.28,29.05-44.06,27.28-70.41,0-59.98-34.86-89.97-104.57-89.97h-94.66v184.45h0Z" style="fill:#fff; stroke-width:0px;"/></svg>