<?xml version="1.0" encoding="UTF-8"?><svg id="Layer_1" xmlns="http://www.w3.org/2000/svg" xmlns:xlink="http://www.w3.org/1999/xlink" viewBox="0 0 47.33 65.08"><defs><mask id="mask" x="0" y="0" width="47.33" height="65.08" maskUnits="userSpaceOnUse"><g id="mask-2"><path id="path-1" d="m29.58,0H4.44C2,0,0,2,0,4.44v56.21c0,2.44,2,4.44,4.44,4.44h38.46c2.44,0,4.44-2,4.44-4.44V17.75L29.58,0Z" style="fill:#fff; fill-rule:evenodd; stroke-width:0px;"/></g></mask><mask id="mask-1" x="0" y="0" width="47.33" height="65.08" maskUnits="userSpaceOnUse"><g id="mask-4"><path id="path-3" d="m29.58,0H4.44C2,0,0,2,0,4.44v56.21c0,2.44,2,4.44,4.44,4.44h38.46c2.44,0,4.44-2,4.44-4.44V17.75L29.58,0Z" style="fill:#fff; fill-rule:evenodd; stroke-width:0px;"/></g></mask><mask id="mask-2-2" x="0" y="0" width="47.33" height="65.08" maskUnits="userSpaceOnUse"><g id="mask-6"><path id="path-5" d="m29.58,0H4.44C2,0,0,2,0,4.44v56.21c0,2.44,2,4.44,4.44,4.44h38.46c2.44,0,4.44-2,4.44-4.44V17.75L29.58,0Z" style="fill:#fff; fill-rule:evenodd; stroke-width:0px;"/></g></mask><linearGradient id="linear-gradient" x1="-878.5" y1="542.19" x2="-878.5" y2="541.28" gradientTransform="translate(14492.24 8936.03) scale(16.45 -16.45)" gradientUnits="userSpaceOnUse"><stop offset="0" stop-color="#263238" stop-opacity=".2"/><stop offset="1" stop-color="#263238" stop-opacity=".02"/></linearGradient><mask id="mask-3" x="0" y="0" width="47.33" height="65.08" maskUnits="userSpaceOnUse"><g id="mask-9"><path id="path-8" d="m29.58,0H4.44C2,0,0,2,0,4.44v56.21c0,2.44,2,4.44,4.44,4.44h38.46c2.44,0,4.44-2,4.44-4.44V17.75L29.58,0Z" style="fill:#fff; fill-rule:evenodd; stroke-width:0px;"/></g></mask><mask id="mask-4-2" x="0" y="0" width="47.33" height="65.08" maskUnits="userSpaceOnUse"><g id="mask-11"><path id="path-10" d="m29.58,0H4.44C2,0,0,2,0,4.44v56.21c0,2.44,2,4.44,4.44,4.44h38.46c2.44,0,4.44-2,4.44-4.44V17.75L29.58,0Z" style="fill:#fff; fill-rule:evenodd; stroke-width:0px;"/></g></mask><mask id="mask-5" x="0" y="0" width="47.33" height="65.08" maskUnits="userSpaceOnUse"><g id="mask-13"><path id="path-12" d="m29.58,0H4.44C2,0,0,2,0,4.44v56.21c0,2.44,2,4.44,4.44,4.44h38.46c2.44,0,4.44-2,4.44-4.44V17.75L29.58,0Z" style="fill:#fff; fill-rule:evenodd; stroke-width:0px;"/></g></mask><mask id="mask-6-2" x="0" y="0" width="47.33" height="65.08" maskUnits="userSpaceOnUse"><g id="mask-15"><path id="path-14" d="m29.58,0H4.44C2,0,0,2,0,4.44v56.21c0,2.44,2,4.44,4.44,4.44h38.46c2.44,0,4.44-2,4.44-4.44V17.75L29.58,0Z" style="fill:#fff; fill-rule:evenodd; stroke-width:0px;"/></g></mask><radialGradient id="radial-gradient" cx="-916.05" cy="562.32" fx="-916.05" fy="562.32" r="1.61" gradientTransform="translate(43361.11 26618.46) scale(47.33 -47.33)" gradientUnits="userSpaceOnUse"><stop offset="0" stop-color="#fff" stop-opacity=".1"/><stop offset="1" stop-color="#fff" stop-opacity="0"/></radialGradient></defs><g id="Page-1"><g id="Consumer-Apps-Sheets-Large-VD-R8-"><g id="Hero"><g id="Personal"><g id="Sheets-icon"><g id="Group"><g id="Clipped"><g style="mask:url(#mask);"><path id="Path" d="m29.58,0H4.44C2,0,0,2,0,4.44v56.21c0,2.44,2,4.44,4.44,4.44h38.46c2.44,0,4.44-2,4.44-4.44V17.75l-10.35-7.4L29.58,0Z" style="fill:#0f9d58; stroke-width:0px;"/></g></g><g id="Clipped-2"><g style="mask:url(#mask-1);"><path id="Shape" d="m11.83,31.8v21.45h23.67v-21.45H11.83Zm10.35,18.49h-7.4v-3.7h7.4v3.7Zm0-5.92h-7.4v-3.7h7.4v3.7Zm0-5.92h-7.4v-3.7h7.4v3.7Zm10.35,11.83h-7.4v-3.7h7.4v3.7Zm0-5.92h-7.4v-3.7h7.4v3.7Zm0-5.92h-7.4v-3.7h7.4v3.7Z" style="fill:#f1f1f1; stroke-width:0px;"/></g></g><g id="Clipped-3"><g style="mask:url(#mask-2-2);"><polygon id="Path-2" points="30.88 16.45 47.33 32.9 47.33 17.75 30.88 16.45" style="fill:url(#linear-gradient); stroke-width:0px;"/></g></g><g id="Clipped-4"><g style="mask:url(#mask-3);"><g id="Group-2"><path id="Path-3" d="m29.58,0v13.31c0,2.45,1.99,4.44,4.44,4.44h13.31L29.58,0Z" style="fill:#87ceac; stroke-width:0px;"/></g></g></g><g id="Clipped-5"><g style="mask:url(#mask-4-2);"><path id="Path-4" d="m4.44,0C2,0,0,2,0,4.44v.37C0,2.37,2,.37,4.44.37h25.15v-.37H4.44Z" style="fill:rgba(255,255,255,.2); stroke-width:0px;"/></g></g><g id="Clipped-6"><g style="mask:url(#mask-5);"><path id="Path-5" d="m42.9,64.71H4.44c-2.44,0-4.44-2-4.44-4.44v.37c0,2.44,2,4.44,4.44,4.44h38.46c2.44,0,4.44-2,4.44-4.44v-.37c0,2.44-2,4.44-4.44,4.44Z" style="fill:rgba(38,50,56,.2); stroke-width:0px;"/></g></g><g id="Clipped-7"><g style="mask:url(#mask-6-2);"><path id="Path-6" d="m34.02,17.75c-2.45,0-4.44-1.99-4.44-4.44v.37c0,2.45,1.99,4.44,4.44,4.44h13.31v-.37h-13.31Z" style="fill:rgba(38,50,56,.1); stroke-width:0px;"/></g></g></g><path id="Path-7" d="m29.58,0H4.44C2,0,0,2,0,4.44v56.21c0,2.44,2,4.44,4.44,4.44h38.46c2.44,0,4.44-2,4.44-4.44V17.75L29.58,0Z" style="fill:url(#radial-gradient); stroke-width:0px;"/></g></g></g></g></g></svg>