<?xml version="1.0" encoding="UTF-8"?><svg id="Layer_1" xmlns="http://www.w3.org/2000/svg" viewBox="0 0 512 105.24"><path d="m364.18,52.59c.01-.44-.18-1-.57-1.3-.39-.31-.81-.37-1.22-.37h-2.11l-16.32,36.98-4.25-19.81c-.25-1.74-1.64-2.93-3.3-2.83h-2.74l-12.88,22.43.13-34.98c.01-.47-.17-1.04-.58-1.37-.4-.33-.85-.41-1.3-.41h-2.75v42.03h3.5s.05,0,.08,0c1.03.01,1.96-.25,2.72-.8.69-.5,1.29-1.19,1.82-2.02l11.28-20.12,4.7,22.94h3.01c1.92,0,3.52-1.12,4.36-3.02l16.22-36.46c.11-.3.21-.5.22-.88m147.82-1.67h-17.35c-8.1.02-8.96,6.67-9,9.81,0,3.3,2.4,5.93,3.59,7l11.81,11.57c1.4,1.38,2.08,3,2.08,4.51,0,2.56-1.96,4.65-5.12,4.64,0,.02-15.29.03-15.43.06-.5.1-1.03.75-1.02,1.28h-.04l.04.02v3.16h17.17c8.11-.03,8.96-6.67,9-9.81,0-.01,0-.01,0-.03,0-4.34-3.99-7.7-4.02-7.71l-11.2-11.02c-1.4-1.38-2.26-2.79-2.27-4.32,0-2.57,1.96-4.65,5.11-4.65.02,0,15.48-.02,15.61-.06l.04.11-.03-.11c.5-.1,1.04-.76,1.02-1.28,0,0,0,0,0-.01,0-.03,0-2.56,0-3.16m-123.8,4.22c-7.71-.43-16.52,4.11-19.55,16.37-2.98,12.01,2.59,17.85,10.15,18.82l.79.04c7.8.41,16.1-4.13,19.02-16.39,2.85-12.02-2.74-18.06-10.4-18.84m14.91,19.2c-2.84,11.95-11.45,21.38-25.19,20.32h0c-12.79-1.49-16.45-12.74-13.75-23.52,2.98-11.94,11.56-21.37,25.1-20.32h0c12.62,1.49,16.39,12.75,13.84,23.52m76.54-23.02c-.36-.27-.76-.32-1.16-.32h-2.05l-21.63,18.5,2.88-16.35c.18-.91-.26-1.52-.63-1.78-.38-.29-.86-.44-1.32-.44h-2.08l-7.81,42.03h4.62l3.42-18.6,17.13,18.62h2.05c.41-.01.8-.07,1.15-.34.36-.25.55-.74.53-1.14,0-.76-.62-1.52-.62-1.52l-16.21-17.61,21.64-18.37s.61-.52.61-1.52c0-.4-.17-.88-.53-1.14m-43.44,5.98c-.84-.82-2.13-1.21-4.13-1.59-.52-.1-1.38-.17-2.35-.22-2.41-.13-9.56-.03-11.75,0l-2.77,15.29c1.64.03,3.53.05,4.86.06,3.74,0,7.36-.12,9.92-.82,6.58-1.78,9.85-9.25,6.22-12.71m4.25-2.54c1.87,2.13,2.01,6.08,1.48,8.51-.65,2.97-3.47,10.47-14.06,11.42l8.92,15.28s.61.91.61,1.52c0,.4-.17.9-.53,1.14-.36.27-.74.34-1.14.34h-2.36l-10.46-18.03-8.43-.04-3.27,18.07h-4.63l7.82-42.04h10.8c6.38,0,11.98.1,15.25,3.84m-310.85,5.14c-.53,3.38.51,7.36,4.29,9.99l13.44,9.38c1.41.97,2.11,1.64,1.94,2.78-.25,1.57-1.07,2.2-3.86,2.2h-15.63c-1.67,0-2.58.82-2.88,2.7v5.82h18.3c8.03,0,11.99-4.73,12.79-9.76.75-4.73-.84-8.11-3.89-10.29l-14.28-10.13c-1.15-.83-1.44-1.25-1.35-1.87.13-1.03,1.07-1.45,2.69-1.45h16.32c1.99,0,3.13-2.04,3.45-4.06v-4.48h-21.57c-4.79,0-8.97,4.28-9.75,9.16m162.64-9.16h-22.63l-.11.68c-.53,2.85-.29,6.16,4.22,6.16h16.76c6.63,0,9.17,4.8,7.53,13.81-1.51,8.25-5.96,14.56-12.71,14.56h-9.09l4.31-23.64h-7.73c-1.04,0-1.76.76-1.88,1.43l-5.3,29.05h17.72c13.09,0,22.21-6.16,25.03-21.7,2.18-11.94-2.79-20.34-16.13-20.34m-53.72,35.21h-17.86l6.17-33.78c.11-.68-.39-1.43-1.23-1.43h-7.86l-7.68,42.03h29.59l.77-4.2c.34-1.89-.29-2.63-1.9-2.63m22.26-35.21h-7.86l-7.68,42.04h9.35l7.42-40.61c.13-.68-.38-1.43-1.23-1.43m-72.69,7.21c-8.53,0-13,4.96-14.6,14.71-1.6,9.77,1.24,14.72,9.77,14.72s12.99-4.95,14.59-14.72c1.61-9.75-1.23-14.71-9.76-14.71m19.04,14.71c-1.96,11.94-10.04,21.93-25.05,21.93s-19.82-9.99-17.86-21.93c1.96-11.93,10.04-21.91,25.06-21.91s19.82,9.98,17.85,21.91m-109.21-36.56c-8.93-1.47-24.9-2.03-30.36,6.34-4.22,6.46,3.75,15.32,11.01,23.9,5.82,6.87,12.15,13.44,9.56,17.27-2.11,3.14-15.64,3.13-20.3,3.38-5.66.3-13.81.32-15.23,1.09-1.28.69-1.99,2.82,2.8,3.68,3.85.69,13.01,2.1,22.67,2.09,10.09,0,20.69-1.66,22.98-9.47,1.85-6.27-4.56-13-10.19-19.82-6.16-7.47-12.41-12.79-11.88-18.08.4-4.11,8.47-4.35,21.85-4.58,2.78-.05,8.32-.18,7.26-2.38-.95-1.94-5.1-2.58-10.18-3.42m-41.17,18.62c-5.73-3.93-15.94-5.24-24.34-4.81-7.49.39-20.36,2.77-19.87,5.14.46,2.56,8.6,1.77,12.34,1.77,8.21,0,21.24.5,23.29,5.79,4.43,11.4-25.58,31.86-31.98,29.89-2.9-.88,5.88-15.76,9.06-21.1,1.89-3.19,4.77-8.21,2.32-8.55-2.75-.38-5.78,4.34-7.75,7.07-5.34,7.4-10.81,15.47-15.19,23.77-1.36,2.57-5.85,10.28-4.31,11.28,1.44.93,8.3-.39,17.04-3.85,27.44-10.86,39.8-25.02,43.1-36.72,1.16-4.12-.84-7.71-3.7-9.67M36.39,4.75c-.57-1.85,8.59-4.25,18.63-4.69,10.11-.44,22.08,1.57,24.31,8.24,3.65,10.93-14.87,26.88-31,34.71-3.96,1.92-6.36,2.44-7.36,2.31-.95-.13-1.1-1.02-.79-1.63.57-1.15,3.18-3.49,6.66-6.04,18.17-13.27,24.07-23,20.64-26.95-2.2-2.53-11.41-4.29-20.97-4.29-2.6,0-9.42.57-10.12-1.68" style="fill:#ee2722; stroke-width:0px;"/></svg>