<?xml version="1.0" encoding="UTF-8"?><svg id="Layer_1" xmlns="http://www.w3.org/2000/svg" xmlns:xlink="http://www.w3.org/1999/xlink" viewBox="0 0 386.98 397.48"><defs><linearGradient id="linear-gradient" x1="178.68" y1="-451.75" x2="321.4" y2="-511.6" gradientTransform="translate(0 -226.52) scale(1 -1)" gradientUnits="userSpaceOnUse"><stop offset="0" stop-color="#249361"/><stop offset="1" stop-color="#3ecf8e"/></linearGradient><linearGradient id="linear-gradient-2" x1="185.52" y1="-303.96" x2="250.6" y2="-426.48" gradientTransform="translate(0 -226.52) scale(1 -1)" gradientUnits="userSpaceOnUse"><stop offset="0" stop-color="#000"/><stop offset="1" stop-color="#000" stop-opacity="0"/></linearGradient></defs><path d="m226.15,390.88c-10.15,12.79-30.74,5.78-30.99-10.55l-3.58-238.82h160.58c29.09,0,45.31,33.59,27.22,56.37l-153.24,192.99Z" style="fill:url(#linear-gradient); stroke-width:0px;"/><path d="m226.15,390.88c-10.15,12.79-30.74,5.78-30.99-10.55l-3.58-238.82h160.58c29.09,0,45.31,33.59,27.22,56.37l-153.24,192.99Z" style="fill:url(#linear-gradient-2); fill-opacity:.2; stroke-width:0px;"/><path d="m160.84,6.6c10.15-12.79,30.74-5.78,30.99,10.55l1.57,238.82H34.82c-29.09,0-45.31-33.59-27.22-56.37L160.84,6.6Z" style="fill:#3ecf8e; stroke-width:0px;"/></svg>