<?xml version="1.0" encoding="UTF-8"?><svg id="Layer_1" xmlns="http://www.w3.org/2000/svg" viewBox="0 0 512 512"><path d="m19.2,0h473.6c10.6,0,19.2,8.6,19.2,19.2v473.6c0,10.6-8.6,19.2-19.2,19.2H19.2c-10.6,0-19.2-8.6-19.2-19.2V19.2C0,8.6,8.6,0,19.2,0Zm265.41,272.38v-41.99H102.4v41.99h65.06v186.97h51.79v-186.97h65.37Zm20.65,182.03c8.35,4.26,18.23,7.45,29.63,9.58,11.4,2.13,23.42,3.19,36.05,3.19s24.01-1.17,35.09-3.51c11.08-2.34,20.8-6.2,29.15-11.58,8.35-5.38,14.96-12.4,19.83-21.08,4.87-8.68,7.31-19.4,7.31-32.18,0-9.26-1.39-17.38-4.17-24.35-2.78-6.97-6.8-13.17-12.05-18.6s-11.54-10.3-18.87-14.61c-7.34-4.31-15.61-8.38-24.81-12.22-6.74-2.77-12.79-5.46-18.15-8.06-5.35-2.61-9.9-5.27-13.65-7.98-3.75-2.72-6.64-5.59-8.67-8.62-2.03-3.03-3.05-6.47-3.05-10.3,0-3.51.91-6.68,2.73-9.5,1.82-2.82,4.39-5.24,7.71-7.27,3.32-2.02,7.39-3.59,12.21-4.71,4.82-1.12,10.17-1.68,16.06-1.68,4.28,0,8.81.32,13.57.96,4.77.64,9.56,1.62,14.37,2.95,4.82,1.33,9.5,3.01,14.05,5.03,4.55,2.02,8.75,4.36,12.61,7.02v-47.74c-7.82-2.98-16.35-5.19-25.62-6.63-9.26-1.44-19.89-2.16-31.88-2.16s-23.77,1.3-34.69,3.91c-10.92,2.61-20.53,6.68-28.83,12.22s-14.86,12.59-19.67,21.16c-4.82,8.57-7.23,18.82-7.23,30.74,0,15.22,4.42,28.21,13.25,38.96,8.83,10.75,22.24,19.85,40.23,27.31,7.07,2.88,13.65,5.7,19.75,8.46,6.1,2.77,11.38,5.64,15.82,8.62,4.44,2.98,7.95,6.23,10.52,9.74s3.86,7.5,3.86,11.98c0,3.3-.8,6.36-2.41,9.18-1.6,2.82-4.04,5.27-7.31,7.35-3.27,2.08-7.34,3.7-12.21,4.87-4.87,1.17-10.57,1.76-17.1,1.76-11.13,0-22.16-1.94-33.08-5.83s-21.04-9.71-30.36-17.48v51.1Z" style="fill:#3178c6; stroke-width:0px;"/></svg>