<?xml version="1.0" encoding="UTF-8"?><svg id="Layer_1" xmlns="http://www.w3.org/2000/svg" xmlns:xlink="http://www.w3.org/1999/xlink" viewBox="0 0 391.69 392.19"><defs><linearGradient id="linear-gradient" x1="97.81" y1="-478.93" x2="326.81" y2="-789.93" gradientTransform="translate(0 -521.81) scale(1 -1)" gradientUnits="userSpaceOnUse"><stop offset="0" stop-color="#41d1ff"/><stop offset="1" stop-color="#bd34fe"/></linearGradient><linearGradient id="linear-gradient-2" x1="205.79" y1="-526.18" x2="247.22" y2="-810.35" gradientTransform="translate(0 -521.81) scale(1 -1)" gradientUnits="userSpaceOnUse"><stop offset="0" stop-color="#ffea83"/><stop offset=".08" stop-color="#ffdd35"/><stop offset="1" stop-color="#ffa800"/></linearGradient></defs><path d="m390.4,58.05l-184,329.02c-3.8,6.79-13.56,6.83-17.42.07L1.34,58.08c-4.2-7.37,2.1-16.29,10.45-14.8l184.19,32.92c1.17.21,2.38.21,3.55,0l180.34-32.87c8.32-1.52,14.65,7.34,10.52,14.72Z" style="fill:url(#linear-gradient); stroke-width:0px;"/><path d="m283.72.1l-136.16,26.68c-2.24.44-3.89,2.34-4.03,4.61l-8.38,141.46c-.2,3.33,2.86,5.92,6.11,5.17l37.91-8.75c3.55-.82,6.75,2.31,6.02,5.87l-11.26,55.15c-.76,3.71,2.73,6.89,6.35,5.79l23.42-7.11c3.63-1.1,7.12,2.08,6.35,5.8l-17.9,86.63c-1.12,5.42,6.09,8.37,9.09,3.73l2.01-3.1,110.95-221.43c1.86-3.71-1.35-7.93-5.42-7.15l-39.02,7.53c-3.67.71-6.79-2.71-5.75-6.3l25.47-88.29c1.04-3.59-2.1-7.01-5.77-6.29Z" style="fill:url(#linear-gradient-2); stroke-width:0px;"/></svg>