<?xml version="1.0" encoding="UTF-8"?><svg id="Livello_1" xmlns="http://www.w3.org/2000/svg" xmlns:xlink="http://www.w3.org/1999/xlink" viewBox="0 0 1881.25 1750"><defs><linearGradient id="linear-gradient" x1="167.21" y1="-340.91" x2="795.29" y2="746.91" gradientTransform="translate(0 672)" gradientUnits="userSpaceOnUse"><stop offset="0" stop-color="#2368c4"/><stop offset=".5" stop-color="#1a5dbe"/><stop offset="1" stop-color="#1146ac"/></linearGradient></defs><path d="m1801.06,0H517.69c-44.29,0-80.19,35.9-80.19,80.19h0v357.31l743.75,218.75,700-218.75V80.19c0-44.29-35.9-80.19-80.19-80.19h0Z" style="fill:#41a5ee; stroke-width:0px;"/><path d="m1881.25,437.5H437.5v437.5l743.75,131.25,700-131.25v-437.5Z" style="fill:#2b7cd3; stroke-width:0px;"/><path d="m437.5,875v437.5l700,87.5,743.75-87.5v-437.5H437.5Z" style="fill:#185abd; stroke-width:0px;"/><path d="m517.69,1750h1283.36c44.29,0,80.19-35.9,80.19-80.19h0v-357.31H437.5v357.31c0,44.29,35.9,80.19,80.19,80.19h0Z" style="fill:#103f91; stroke-width:0px;"/><path d="m969.81,350H437.5v1093.75h532.31c44.23-.14,80.05-35.96,80.19-80.19V430.19c-.14-44.23-35.96-80.05-80.19-80.19Z" style="isolation:isolate; opacity:.1; stroke-width:0px;"/><path d="m926.06,393.75h-488.56v1093.75h488.56c44.23-.14,80.05-35.96,80.19-80.19V473.94c-.14-44.23-35.96-80.05-80.19-80.19Z" style="isolation:isolate; opacity:.2; stroke-width:0px;"/><path d="m926.06,393.75h-488.56v1006.25h488.56c44.23-.14,80.05-35.96,80.19-80.19V473.94c-.14-44.23-35.96-80.05-80.19-80.19Z" style="isolation:isolate; opacity:.2; stroke-width:0px;"/><path d="m882.31,393.75h-444.81v1006.25h444.81c44.23-.14,80.05-35.96,80.19-80.19V473.94c-.14-44.23-35.96-80.05-80.19-80.19Z" style="isolation:isolate; opacity:.2; stroke-width:0px;"/><path d="m80.19,393.75h802.11c44.29,0,80.19,35.9,80.19,80.19v802.11c0,44.29-35.9,80.19-80.19,80.19H80.19c-44.29,0-80.19-35.9-80.19-80.19V473.94c0-44.29,35.9-80.19,80.19-80.19Z" style="fill:url(#linear-gradient); stroke-width:0px;"/><path d="m329.09,1008.79c1.58,12.38,2.62,23.14,3.11,32.38h1.84c.7-8.75,2.16-19.29,4.38-31.63,2.22-12.34,4.21-22.77,5.99-31.28l84.35-363.91h109.07l87.5,358.44c5.08,22.29,8.72,44.88,10.89,67.64h1.44c1.63-22.05,4.67-43.97,9.1-65.62l69.78-360.63h99.27l-122.59,521.5h-115.98l-83.12-345.36c-2.41-9.93-5.16-22.92-8.18-38.89s-4.9-27.65-5.64-35h-1.44c-.96,8.49-2.84,21.09-5.64,37.8-2.8,16.71-5.05,29.08-6.74,37.1l-78.14,344.27h-117.95l-123.24-521.24h101.06l75.99,364.66c1.71,7.48,3.33,17.46,4.9,29.8Z" style="fill:#fff; stroke-width:0px;"/></svg>