<?xml version="1.0" encoding="UTF-8"?><svg id="a" xmlns="http://www.w3.org/2000/svg" viewBox="0 0 700 700"><circle cx="350" cy="350" r="350" style="fill:#028cb0; stroke-width:0px;"/><path d="m111.38,350c0,94.56,55,176,134.54,214.71l-113.81-311.81c-13.67,30.54-20.73,63.63-20.73,97.09Zm238.62,238.61c27.71,0,54.37-4.86,79.33-13.54l-1.69-3.17-73.4-200.96-71.5,207.94c21.15,6.35,43.79,9.73,67.27,9.73Zm32.79-350.52l86.31,256.6,23.9-79.54c10.16-33,17.98-56.69,17.98-77.21,0-29.61-10.58-49.92-19.46-65.58-12.27-19.88-23.48-36.59-23.48-56.06,0-22,16.5-42.31,40.19-42.31h2.96c-43.97-40.36-101.51-62.71-161.19-62.62-39.52,0-78.42,9.81-113.21,28.57-34.78,18.76-64.36,45.87-86.06,78.89l15.23.42c24.96,0,63.46-3.17,63.46-3.17,13.12-.63,14.6,18.19,1.69,19.68,0,0-12.9,1.69-27.5,2.32l87.16,258.5,52.25-156.54-37.23-101.96c-8.34-.46-16.66-1.17-24.96-2.11-12.91-.85-11.42-20.52,1.48-19.89,0,0,39.35,3.17,62.83,3.17,24.96,0,63.46-3.17,63.46-3.17,12.91-.63,14.6,18.19,1.69,19.68,0,0-12.9,1.48-27.5,2.32Zm87.16,318.16c36.1-20.99,66.05-51.08,86.88-87.28s31.79-77.22,31.79-118.97c0-41.46-10.58-80.38-29.19-114.44,3.78,37.47-1.89,75.29-16.5,110l-72.98,210.69Zm-119.94,68.75c-72.94,0-142.88-28.97-194.45-80.54-51.57-51.57-80.55-121.52-80.55-194.46s28.97-142.88,80.55-194.45c51.57-51.57,121.52-80.55,194.45-80.55s142.88,28.97,194.46,80.55c51.57,51.57,80.54,121.52,80.54,194.45s-28.97,142.88-80.54,194.46-121.52,80.54-194.46,80.54Z" style="fill:#fff; stroke-width:0px;"/></svg>